<?xml version="1.0" encoding="iso-8859-1"?>
<!-- Generator: Adobe Illustrator 18.0.0, SVG Export Plug-In . SVG Version: 6.00 Build 0)  -->
<!DOCTYPE svg PUBLIC "-//W3C//DTD SVG 1.1//EN" "http://www.w3.org/Graphics/SVG/1.1/DTD/svg11.dtd">
<svg version="1.1" id="Capa_1" xmlns="http://www.w3.org/2000/svg" xmlns:xlink="http://www.w3.org/1999/xlink" x="0px" y="0px"
	 viewBox="0 0 357.82 357.82" style="enable-background:new 0 0 357.82 357.82;" xml:space="preserve">
<g>
	<g>
		
			<rect x="333.36" y="27.34" transform="matrix(-0.7071 -0.7071 0.7071 -0.7071 556.1378 288.567)" style="fill:#F2EFDC;" width="8.946" height="3.527"/>
		
			<rect x="324.243" y="18.223" transform="matrix(0.7071 0.7071 -0.7071 0.7071 110.4012 -226.5748)" style="fill:#F2EFDC;" width="8.946" height="3.527"/>
		
			<rect x="312.536" y="29.928" transform="matrix(0.7071 0.7071 -0.7071 0.7071 115.2619 -214.8788)" style="fill:#F2EFDC;" width="8.947" height="3.528"/>
		
			<rect x="321.654" y="39.046" transform="matrix(-0.7071 -0.7071 0.7071 -0.7071 527.8876 300.2662)" style="fill:#F2EFDC;" width="8.946" height="3.528"/>
		<path style="fill:#F2EFDC;" d="M310.553,50.058c-0.189,0.189-0.349,0.392-0.486,0.608l0.732,0.732l1.293,1.293l4.179,4.179
			c0.216-0.138,0.419-0.296,0.608-0.485l1.947-1.947l-6.326-6.326L310.553,50.058z"/>
		<path style="fill:#F2EFDC;" d="M306.426,47.025l0.728,0.729c0.216-0.138,0.419-0.297,0.608-0.486l1.947-1.947l-6.326-6.326
			l-1.947,1.948c-0.19,0.189-0.349,0.392-0.486,0.607l4.184,4.184L306.426,47.025z"/>
		<path style="fill:#109D59;" d="M116.144,242.967c0.69,0.379,1.53,0.557,2.427,0.66l9.78-9.78
			c-0.603-0.406-1.176-0.857-1.729-1.359L116.144,242.967z"/>
		<path style="fill:#109D59;" d="M125.33,231.195c-0.496-0.547-0.95-1.124-1.357-1.72l-9.781,9.781
			c0.104,0.889,0.28,1.729,0.658,2.417L125.33,231.195z"/>
		<path style="fill:#109D59;" d="M125.96,207.559c3.343-3.343,7.729-5.025,12.116-5.033l11.489-10.913
			c-0.911-1.327-1.852-2.585-3.144-2.93c-2.572-0.686-5.665,2.365-8.311,2.365c-2.646,0-5.74-3.051-8.312-2.364
			c-2.538,0.674-3.697,4.852-6.023,6.196c-2.25,1.3-6.455,0.198-8.376,2.119c-1.926,1.926-0.819,6.126-2.12,8.376
			c-1.344,2.326-5.52,3.484-6.195,6.024c-0.69,2.576,2.364,5.665,2.364,8.31c-0.004,2.651-3.054,5.744-2.369,8.318
			c0.681,2.532,4.856,3.691,6.2,6.018c0.443,0.771,0.607,1.771,0.711,2.83l9.001-9C119.467,221.368,120.458,213.061,125.96,207.559z
			"/>
		<path style="fill:#109D59;" d="M150.261,231.859c-5.502,5.503-13.801,6.494-20.311,2.974l-8.997,8.997
			c1.053,0.103,2.051,0.267,2.824,0.71c2.325,1.344,3.484,5.52,6.018,6.2c2.578,0.688,5.667-2.365,8.316-2.37
			c2.645,0,5.739,3.061,8.311,2.365c2.539-0.676,3.697-4.852,6.024-6.195c2.249-1.302,6.45-0.193,8.376-2.119
			c1.922-1.922,0.818-6.128,2.119-8.376c1.345-2.327,5.52-3.487,6.196-6.024c0.691-2.567-2.365-5.666-2.365-8.312
			c0.001-2.646,3.056-5.735,2.365-8.312c-0.345-1.292-1.602-2.233-2.93-3.145l-10.913,11.491
			C155.284,224.129,153.604,228.517,150.261,231.859z"/>
		<path style="fill:#DC4437;" d="M114.192,239.257l-31.436,31.437l1.537,1.538l30.557-30.558
			C114.473,240.985,114.296,240.146,114.192,239.257z"/>
		<path style="fill:#DC4437;" d="M85.587,273.523l1.543,1.544l31.44-31.44c-0.896-0.104-1.736-0.281-2.427-0.66L85.587,273.523z"/>
		<polygon style="fill:#F7C63B;" points="85.587,273.523 84.294,272.232 82.757,270.693 81.464,269.401 56.004,243.941 
			43.947,255.997 101.822,313.871 113.878,301.816 88.423,276.359 87.13,275.067 		"/>
		<path style="fill:#F2EFDC;" d="M34.589,327.116l2.538-2.633c-0.637-0.611-1.271-1.236-1.913-1.879
			c-1.439-1.44-2.833-2.895-4.149-4.338l-2.701,2.469c1.354,1.482,2.788,2.977,4.266,4.454
			C33.284,325.845,33.939,326.491,34.589,327.116z"/>
		<path style="fill:#F2EFDC;" d="M41.544,328.538l-2.4,2.754c1.586,1.387,3.188,2.715,4.767,3.945l2.254-2.883
			C44.637,331.167,43.086,329.882,41.544,328.538z"/>
		<path style="fill:#F2EFDC;" d="M23.47,309.015l-2.956,2.154c1.185,1.625,2.463,3.275,3.8,4.895l2.822-2.32
			C25.843,312.173,24.609,310.587,23.47,309.015z"/>
		<path style="fill:#F2EFDC;" d="M50.971,335.89l-2.059,3.014c1.74,1.199,3.502,2.314,5.243,3.332L56,339.081
			C54.337,338.107,52.648,337.03,50.971,335.89z"/>
		<path style="fill:#F2EFDC;" d="M17.14,298.946l-3.236,1.701c0.943,1.788,1.99,3.603,3.12,5.386l3.094-1.947
			C19.035,302.376,18.035,300.644,17.14,298.946z"/>
		<path style="fill:#F2EFDC;" d="M61.238,341.864l-1.576,3.301c1.904,0.913,3.848,1.736,5.757,2.44l1.267-3.43
			C64.876,343.511,63.044,342.73,61.238,341.864z"/>
		<path style="fill:#F2EFDC;" d="M12.602,288.04l-3.493,1.065c0.589,1.952,1.31,3.939,2.128,5.894l3.373-1.408
			C13.84,291.741,13.162,289.876,12.602,288.04z"/>
		<path style="fill:#F2EFDC;" d="M71.416,349.465c2.05,0.519,4.132,0.919,6.183,1.186l0.47-3.624
			c-1.903-0.25-3.843-0.619-5.761-1.107L71.416,349.465z"/>
		<path style="fill:#F2EFDC;" d="M10.482,276.519l-3.648,0.228c0.13,2.068,0.392,4.176,0.78,6.252l3.588-0.668
			C10.845,280.398,10.604,278.441,10.482,276.519z"/>
		<path style="fill:#DC4437;" d="M148.917,304.806c4.093-22.189,4.814-43.833,25.68-48.611
			c20.871-4.773,29.799-15.623,29.799-15.623c17.398-17.398,0.814-47.925-9.186-62.872l-3.003,3.167l-0.973,1.025l-25.026,26.362
			c1.327,0.912,2.585,1.852,2.93,3.145c0.691,2.576-2.364,5.666-2.365,8.312c0,2.646,3.056,5.744,2.365,8.312
			c-0.676,2.537-4.852,3.697-6.196,6.024c-1.301,2.248-0.197,6.454-2.119,8.376c-1.926,1.926-6.127,0.817-8.376,2.119
			c-2.327,1.344-3.485,5.52-6.024,6.195c-2.571,0.695-5.666-2.365-8.311-2.365c-2.65,0.005-5.738,3.059-8.316,2.37
			c-2.533-0.681-3.692-4.857-6.018-6.2c-0.773-0.443-1.771-0.607-2.824-0.71l-32.529,32.529l25.455,25.456l-12.056,12.056
			l-57.875-57.874l12.057-12.057l25.46,25.461l32.526-32.527c-0.104-1.059-0.268-2.059-0.711-2.83
			c-1.344-2.326-5.52-3.485-6.2-6.018c-0.685-2.574,2.365-5.667,2.369-8.318c0-2.645-3.055-5.734-2.364-8.31
			c0.676-2.54,4.852-3.698,6.195-6.024c1.301-2.25,0.194-6.451,2.12-8.376c1.921-1.921,6.126-0.819,8.376-2.119
			c2.326-1.344,3.485-5.521,6.023-6.196c2.571-0.687,5.665,2.364,8.312,2.364c2.646,0,5.739-3.051,8.311-2.365
			c1.292,0.344,2.232,1.602,3.144,2.93l30.554-29.003c-14.946-10.001-45.468-26.58-62.867-9.181c0,0-10.854,8.922-15.628,29.793
			c-4.777,20.866-26.42,21.587-48.61,25.68c-22.189,4.093-92.422,50.196-23.357,119.259
			C98.72,397.226,144.823,326.995,148.917,304.806z M192.399,188.273l3.181-1.801c1.038,1.832,2.021,3.676,2.912,5.482l-3.275,1.62
			C194.357,191.833,193.407,190.048,192.399,188.273z M197.7,199.019l3.377-1.404c0.828,1.981,1.556,3.95,2.172,5.859l-3.477,1.124
			C199.187,202.788,198.487,200.911,197.7,199.019z M201.323,210.303l3.572-0.771c0.465,2.145,0.78,4.251,0.943,6.26l-3.641,0.297
			C202.047,214.241,201.755,212.293,201.323,210.303z M202.19,221.863l3.642,0.331c-0.199,2.217-0.617,4.349-1.251,6.343
			l-3.484-1.099C201.646,225.691,202.013,223.816,202.19,221.863z M195.287,236.96c1.357-1.355,2.528-2.838,3.489-4.41l3.12,1.912
			c-1.112,1.81-2.464,3.523-4.024,5.084L195.287,236.96z M186.14,244.29c1.719-1.056,3.344-2.189,4.829-3.356l2.259,2.878
			c-1.599,1.254-3.336,2.465-5.179,3.594L186.14,244.29z M175.51,249.466c1.862-0.707,3.696-1.492,5.442-2.341l1.594,3.291
			c-1.845,0.897-3.778,1.73-5.748,2.466L175.51,249.466z M163.846,253.287c1.405-0.62,2.921-1.138,4.503-1.556
			c0.512-0.135,1.02-0.271,1.521-0.41l0.994,3.512c-0.521,0.151-1.056,0.298-1.593,0.439c-1.396,0.362-2.729,0.824-3.956,1.361
			L163.846,253.287z M156.065,258.577c0.005-0.004,0.005-0.004,0.005-0.004c0.684-0.685,1.408-1.33,2.163-1.921l2.271,2.864
			c-0.643,0.504-1.263,1.057-1.849,1.642c0,0,0,0-0.005,0.005c-0.724,0.724-1.418,1.521-2.063,2.375l-2.914-2.216
			C154.419,260.345,155.225,259.417,156.065,258.577z M150.33,266.819l3.278,1.607c-0.797,1.634-1.516,3.404-2.201,5.426
			l-3.465-1.172C148.675,270.509,149.459,268.595,150.33,266.819z M146.193,278.661l3.542,0.904
			c-0.439,1.73-0.871,3.594-1.348,5.863l-3.577-0.758C145.298,282.349,145.741,280.441,146.193,278.661z M143.557,290.812
			l0.029-0.144l3.589,0.712l-0.033,0.146c-0.379,1.93-0.771,3.881-1.182,5.843l-3.576-0.751
			C142.79,294.671,143.177,292.733,143.557,290.812z M140.863,302.251l3.439,1.24c-0.663,1.827-1.495,3.77-2.477,5.787l-3.288-1.607
			C139.463,305.778,140.247,303.952,140.863,302.251z M135.71,312.901l3.146,1.861c-1.038,1.764-2.172,3.524-3.355,5.244
			l-3.003-2.082C133.634,316.28,134.71,314.591,135.71,312.901z M174.324,163.985l-1.891,3.123
			c-1.741-1.051-3.494-2.055-5.218-2.978l1.724-3.222C170.722,161.865,172.532,162.899,174.324,163.985z M163.377,158.138
			l-1.53,3.313c-1.861-0.853-3.709-1.633-5.506-2.309l1.292-3.421C159.507,156.431,161.438,157.241,163.377,158.138z
			 M145.53,152.407c1.985,0.314,4.054,0.771,6.156,1.358l-0.986,3.52c-1.964-0.543-3.896-0.975-5.748-1.267L145.53,152.407z
			 M132.794,152.373c2.028-0.374,4.184-0.548,6.402-0.524l-0.039,3.657c-1.985-0.022-3.908,0.134-5.709,0.46L132.794,152.373z
			 M120.987,157.561c1.728-1.332,3.61-2.449,5.597-3.314l1.458,3.352c-1.712,0.746-3.332,1.711-4.822,2.857L120.987,157.561z
			 M116.304,161.89l2.685,2.487c-1.237,1.332-2.465,2.87-3.659,4.563l-2.988-2.103C113.624,165.01,114.961,163.347,116.304,161.89z
			 M109.014,172.171l3.196,1.767c-0.935,1.693-1.817,3.482-2.615,5.312l-3.347-1.46
			C107.087,175.855,108.023,173.964,109.014,172.171z M102.55,188.545c0.436-1.668,0.928-3.324,1.462-4.918l3.464,1.164
			c-0.509,1.516-0.975,3.093-1.388,4.679c-0.099,0.375-0.202,0.745-0.313,1.107l-3.505-1.047
			C102.369,189.208,102.464,188.88,102.55,188.545z M96.657,199.171c1.322-1.323,2.464-2.819,3.402-4.439l3.167,1.831
			c-1.094,1.895-2.433,3.641-3.984,5.192l-2.59-2.581L96.657,199.171z M87.036,205.266c1.934-0.797,3.622-1.649,5.165-2.606
			l1.926,3.107c-1.71,1.064-3.577,2.007-5.7,2.883L87.036,205.266z M75.669,208.714c2.171-0.51,4.067-1,5.79-1.509l1.035,3.508
			c-1.797,0.529-3.758,1.041-5.998,1.559L75.669,208.714z M63.79,211.173l2.494-0.494c1.172-0.233,2.327-0.467,3.473-0.698
			l0.733,3.584c-1.156,0.233-2.319,0.465-3.491,0.698l-2.489,0.5L63.79,211.173z M51.721,214.547
			c2.181-0.921,4.201-1.623,6.016-2.086l0.896,3.543c-1.628,0.413-3.477,1.054-5.485,1.908L51.721,214.547z M40.699,220.407
			c1.78-1.133,3.59-2.192,5.377-3.145l1.728,3.219c-1.711,0.917-3.438,1.929-5.141,3.012L40.699,220.407z M39.144,331.292l2.4-2.754
			c1.542,1.344,3.093,2.629,4.62,3.816l-2.254,2.883C42.332,334.007,40.73,332.679,39.144,331.292z M48.912,338.903l2.059-3.014
			c1.678,1.141,3.366,2.217,5.029,3.191l-1.845,3.154C52.414,341.218,50.652,340.103,48.912,338.903z M59.662,345.165l1.576-3.301
			c1.806,0.866,3.638,1.646,5.447,2.311l-1.267,3.43C63.51,346.901,61.566,346.078,59.662,345.165z M77.599,350.65
			c-2.051-0.267-4.133-0.667-6.183-1.186l0.892-3.546c1.918,0.488,3.857,0.857,5.761,1.107L77.599,350.65z M90.197,350.719
			c-2.079,0.255-4.209,0.376-6.308,0.362l0.026-3.654c1.942,0.014,3.903-0.103,5.837-0.34L90.197,350.719z M128.937,322.718
			l2.857,2.279c-1.301,1.628-2.664,3.223-4.046,4.725l-2.693-2.477C126.382,325.807,127.687,324.276,128.937,322.718z
			 M30.69,227.779c1.568-1.327,3.207-2.628,4.879-3.862l2.17,2.949c-1.602,1.181-3.175,2.426-4.683,3.699L30.69,227.779z
			 M25.563,232.501c0.177-0.176,0.354-0.354,0.531-0.521l2.563,2.607c-1.421,1.396-2.801,2.861-4.08,4.33l-2.762-2.4
			C22.999,235.159,24.257,233.808,25.563,232.501z M116.364,335.359c1.517-1.206,3.033-2.508,4.498-3.878l2.496,2.667
			c-1.535,1.439-3.13,2.811-4.723,4.076L116.364,335.359z M17.915,241.4l2.95,2.158c-1.18,1.611-2.275,3.274-3.264,4.938
			l-3.143-1.865C15.508,244.868,16.666,243.105,17.915,241.4z M106.462,341.804c1.711-0.883,3.427-1.893,5.094-2.98l2.003,3.063
			c-1.773,1.156-3.593,2.225-5.415,3.167L106.462,341.804z M11.534,252.192l3.325,1.525c-0.826,1.801-1.551,3.645-2.145,5.472
			l-3.477-1.134C9.875,256.091,10.65,254.118,11.534,252.192z M95.507,346.014c1.868-0.474,3.747-1.076,5.593-1.783l1.313,3.408
			c-1.978,0.763-4.002,1.409-6.01,1.917L95.507,346.014z M7.651,264.166l3.585,0.698c-0.37,1.912-0.624,3.865-0.75,5.801
			l-3.644-0.233C6.975,268.341,7.247,266.234,7.651,264.166z M6.833,276.747l3.648-0.228c0.122,1.922,0.363,3.879,0.72,5.813
			l-3.588,0.668C7.225,280.923,6.963,278.816,6.833,276.747z M9.108,289.105l3.493-1.065c0.561,1.836,1.238,3.701,2.008,5.551
			l-3.373,1.408C10.418,293.044,9.697,291.058,9.108,289.105z M13.903,300.648l3.236-1.701c0.896,1.697,1.896,3.43,2.978,5.14
			l-3.094,1.947C15.894,304.251,14.847,302.436,13.903,300.648z M20.514,311.169l2.956-2.154c1.14,1.572,2.373,3.158,3.666,4.728
			l-2.822,2.32C22.977,314.444,21.698,312.794,20.514,311.169z M31.065,318.267c1.316,1.443,2.711,2.898,4.149,4.338
			c0.643,0.642,1.276,1.267,1.913,1.879l-2.538,2.633c-0.65-0.625-1.305-1.271-1.96-1.927c-1.477-1.478-2.912-2.973-4.266-4.454
			L31.065,318.267z"/>
		<path style="fill:#F2EFDC;" d="M83.89,351.081c2.099,0.014,4.229-0.107,6.308-0.362l-0.444-3.632
			c-1.934,0.237-3.895,0.354-5.837,0.34L83.89,351.081z"/>
		<path style="fill:#F2EFDC;" d="M11.236,264.864l-3.585-0.698c-0.404,2.067-0.677,4.175-0.81,6.266l3.644,0.233
			C10.612,268.73,10.866,266.776,11.236,264.864z"/>
		<path style="fill:#F2EFDC;" d="M101.1,344.23c-1.846,0.707-3.725,1.31-5.593,1.783l0.896,3.542
			c2.008-0.508,4.032-1.154,6.01-1.917L101.1,344.23z"/>
		<path style="fill:#F2EFDC;" d="M14.859,253.718l-3.325-1.525c-0.884,1.926-1.659,3.898-2.296,5.863l3.477,1.134
			C13.309,257.362,14.033,255.519,14.859,253.718z"/>
		<path style="fill:#F2EFDC;" d="M111.556,338.823c-1.667,1.088-3.383,2.098-5.094,2.98l1.682,3.249
			c1.822-0.942,3.642-2.011,5.415-3.167L111.556,338.823z"/>
		<path style="fill:#F2EFDC;" d="M20.865,243.558l-2.95-2.158c-1.249,1.705-2.407,3.469-3.456,5.23l3.143,1.865
			C18.59,246.832,19.686,245.169,20.865,243.558z"/>
		<path style="fill:#F2EFDC;" d="M120.862,331.48c-1.465,1.37-2.981,2.672-4.498,3.878l2.271,2.865
			c1.593-1.266,3.188-2.637,4.723-4.076L120.862,331.48z"/>
		<path style="fill:#F2EFDC;" d="M28.656,234.587l-2.563-2.607c-0.178,0.168-0.354,0.346-0.531,0.521
			c-1.306,1.307-2.563,2.658-3.748,4.016l2.762,2.4C25.856,237.448,27.235,235.984,28.656,234.587z"/>
		<path style="fill:#F2EFDC;" d="M131.794,324.997l-2.857-2.279c-1.25,1.559-2.555,3.089-3.882,4.527l2.693,2.477
			C129.13,328.22,130.493,326.625,131.794,324.997z"/>
		<path style="fill:#F2EFDC;" d="M35.568,223.917c-1.672,1.234-3.311,2.535-4.879,3.862l2.366,2.786
			c1.508-1.273,3.081-2.519,4.683-3.699L35.568,223.917z"/>
		<polygon style="fill:#F2EFDC;" points="114.192,239.257 123.974,229.476 134.547,218.903 147.878,205.572 157.658,195.792 
			180.801,172.65 183.421,170.029 186.398,167.053 300.501,52.949 299.208,51.657 184.911,165.954 181.912,168.953 179.292,171.573 
			155.276,195.588 146.274,204.59 133.254,217.611 122.991,227.874 113.99,236.874 81.464,269.401 82.757,270.693 		"/>
		<path style="fill:#F2EFDC;" d="M138.856,314.763l-3.146-1.861c-1,1.69-2.076,3.379-3.213,5.023l3.003,2.082
			C136.684,318.287,137.817,316.526,138.856,314.763z"/>
		<path style="fill:#F2EFDC;" d="M46.076,217.262c-1.787,0.952-3.597,2.011-5.377,3.145l1.965,3.086
			c1.702-1.083,3.43-2.095,5.141-3.012L46.076,217.262z"/>
		<path style="fill:#F2EFDC;" d="M144.302,303.491l-3.439-1.24c-0.616,1.701-1.4,3.527-2.326,5.42l3.288,1.607
			C142.807,307.261,143.639,305.318,144.302,303.491z"/>
		<path style="fill:#F2EFDC;" d="M57.736,212.461c-1.814,0.462-3.835,1.164-6.016,2.086l1.426,3.365
			c2.008-0.854,3.857-1.495,5.485-1.908L57.736,212.461z"/>
		<path style="fill:#F2EFDC;" d="M147.142,291.526l0.033-0.146l-3.589-0.712l-0.029,0.144c-0.38,1.921-0.767,3.859-1.173,5.807
			l3.576,0.751C146.37,295.407,146.763,293.456,147.142,291.526z"/>
		<path style="fill:#F2EFDC;" d="M70.49,213.565l-0.733-3.584c-1.146,0.231-2.301,0.465-3.473,0.698l-2.494,0.494l0.72,3.59
			l2.489-0.5C68.171,214.03,69.334,213.797,70.49,213.565z"/>
		<path style="fill:#F2EFDC;" d="M149.735,279.566l-3.542-0.904c-0.452,1.779-0.895,3.688-1.383,6.01l3.577,0.758
			C148.864,283.159,149.296,281.296,149.735,279.566z"/>
		<path style="fill:#F2EFDC;" d="M81.459,207.205c-1.723,0.509-3.619,0.999-5.79,1.509l0.827,3.558
			c2.24-0.517,4.201-1.03,5.998-1.559L81.459,207.205z"/>
		<path style="fill:#F2EFDC;" d="M153.608,268.427l-3.278-1.607c-0.871,1.775-1.655,3.689-2.388,5.861l3.465,1.172
			C152.093,271.831,152.812,270.061,153.608,268.427z"/>
		<path style="fill:#F2EFDC;" d="M92.201,202.66c-1.543,0.957-3.232,1.81-5.165,2.606l1.391,3.383c2.123-0.876,3.99-1.819,5.7-2.883
			L92.201,202.66z"/>
		<path style="fill:#F2EFDC;" d="M158.649,261.163c0.005-0.005,0.005-0.005,0.005-0.005c0.586-0.585,1.206-1.138,1.849-1.642
			l-2.271-2.864c-0.755,0.591-1.479,1.236-2.163,1.921c0,0,0,0-0.005,0.004c-0.84,0.84-1.646,1.768-2.392,2.745l2.914,2.216
			C157.232,262.685,157.926,261.887,158.649,261.163z"/>
		<path style="fill:#663F30;" d="M126.622,232.487c0.553,0.502,1.126,0.953,1.729,1.359l10.569-10.57l-1.543-1.543L126.622,232.487z
			"/>
		<path style="fill:#663F30;" d="M136.084,220.441l-1.537-1.538l-10.573,10.572c0.406,0.596,0.86,1.173,1.357,1.72L136.084,220.441z
			"/>
		<polygon style="fill:#F2EFDC;" points="140.213,224.569 153.233,211.549 162.231,202.552 186.247,178.536 188.411,176.372 
			191.87,172.913 306.167,58.616 304.874,57.323 190.772,171.426 162.028,200.169 152.247,209.95 138.92,223.276 128.351,233.847 
			118.57,243.627 87.13,275.067 88.423,276.359 120.952,243.83 129.949,234.833 		"/>
		<path style="fill:#663F30;" d="M150.261,231.859c3.343-3.343,5.024-7.73,5.033-12.116l-9.695,10.211l-5.386-5.386l-10.264,10.264
			C136.46,238.354,144.759,237.362,150.261,231.859z"/>
		<path style="fill:#663F30;" d="M122.991,227.874l10.263-10.263l-5.39-5.391l10.212-9.695c-4.387,0.008-8.773,1.691-12.116,5.033
			C120.458,213.061,119.467,221.368,122.991,227.874z"/>
		<path style="fill:#F2EFDC;" d="M103.227,196.563l-3.167-1.831c-0.938,1.62-2.08,3.116-3.402,4.439l-0.005,0.004l2.59,2.581
			C100.794,200.204,102.133,198.458,103.227,196.563z"/>
		<path style="fill:#F2EFDC;" d="M170.864,254.833l-0.994-3.512c-0.501,0.139-1.01,0.275-1.521,0.41
			c-1.582,0.418-3.098,0.936-4.503,1.556l1.47,3.347c1.228-0.537,2.56-0.999,3.956-1.361
			C169.809,255.131,170.344,254.984,170.864,254.833z"/>
		<path style="fill:#F2EFDC;" d="M106.088,189.471c0.413-1.586,0.879-3.163,1.388-4.679l-3.464-1.164
			c-0.534,1.594-1.026,3.25-1.462,4.918c-0.086,0.335-0.181,0.663-0.28,0.986l3.505,1.047
			C105.886,190.215,105.989,189.846,106.088,189.471z"/>
		<path style="fill:#F2EFDC;" d="M180.952,247.125c-1.746,0.849-3.58,1.634-5.442,2.341l1.288,3.416
			c1.97-0.736,3.903-1.568,5.748-2.466L180.952,247.125z"/>
		<path style="fill:#F2EFDC;" d="M112.21,173.938l-3.196-1.767c-0.991,1.793-1.927,3.684-2.766,5.619l3.347,1.46
			C110.393,177.42,111.275,175.631,112.21,173.938z"/>
		<polygon style="fill:#F7C63B;" points="138.076,202.525 127.864,212.22 133.254,217.611 146.274,204.59 155.276,195.588 
			179.292,171.573 181.912,168.953 184.911,165.954 299.208,51.657 298.127,50.575 180.119,162.61 149.565,191.612 		"/>
		<path style="fill:#F2EFDC;" d="M190.969,240.934c-1.485,1.167-3.11,2.301-4.829,3.356l1.909,3.115
			c1.843-1.129,3.58-2.34,5.179-3.594L190.969,240.934z"/>
		<path style="fill:#F2EFDC;" d="M118.988,164.377l-2.685-2.487c-1.343,1.458-2.68,3.12-3.963,4.947l2.988,2.103
			C116.523,167.246,117.751,165.708,118.988,164.377z"/>
		<path style="fill:#F2EFDC;" d="M198.776,232.55c-0.961,1.572-2.133,3.055-3.489,4.41l2.585,2.586
			c1.561-1.561,2.912-3.274,4.024-5.084L198.776,232.55z"/>
		<polygon style="fill:#F7C63B;" points="161.367,197.743 150.89,208.221 137.377,221.734 138.92,223.276 152.247,209.95 
			162.028,200.169 190.772,171.426 304.874,57.323 303.331,55.78 189.435,169.676 		"/>
		<polygon style="fill:#F7C63B;" points="183.421,170.029 180.801,172.65 157.658,195.792 147.878,205.572 134.547,218.903 
			136.084,220.441 149.597,206.928 160.075,196.45 188.143,168.383 302.038,54.487 300.501,52.949 186.398,167.053 		"/>
		<path style="fill:#F2EFDC;" d="M126.584,154.247c-1.986,0.866-3.869,1.982-5.597,3.314l2.232,2.895
			c1.49-1.146,3.11-2.111,4.822-2.857L126.584,154.247z"/>
		<polygon style="fill:#F2EFDC;" points="160.075,196.45 149.597,206.928 136.084,220.441 125.33,231.195 114.851,241.674 
			84.294,272.232 85.587,273.523 116.144,242.967 126.622,232.487 137.377,221.734 150.89,208.221 161.367,197.743 189.435,169.676 
			303.331,55.78 302.038,54.487 188.143,168.383 		"/>
		<path style="fill:#F2EFDC;" d="M205.831,222.194l-3.642-0.331c-0.177,1.952-0.544,3.827-1.094,5.575l3.484,1.099
			C205.214,226.543,205.632,224.411,205.831,222.194z"/>
		<path style="fill:#F2EFDC;" d="M139.196,151.848c-2.219-0.023-4.374,0.15-6.402,0.524l0.654,3.593
			c1.801-0.327,3.724-0.482,5.709-0.46L139.196,151.848z"/>
		<path style="fill:#F2EFDC;" d="M204.896,209.533l-3.572,0.771c0.432,1.99,0.724,3.938,0.875,5.787l3.641-0.297
			C205.676,213.783,205.36,211.678,204.896,209.533z"/>
		<path style="fill:#F2EFDC;" d="M151.687,153.765c-2.102-0.586-4.171-1.044-6.156-1.358l-0.578,3.611
			c1.852,0.292,3.784,0.724,5.748,1.267L151.687,153.765z"/>
		<path style="fill:#F2EFDC;" d="M201.077,197.615l-3.377,1.404c0.787,1.892,1.486,3.77,2.071,5.58l3.477-1.124
			C202.633,201.565,201.905,199.596,201.077,197.615z"/>
		<path style="fill:#F2EFDC;" d="M161.847,161.451l1.53-3.313c-1.939-0.897-3.87-1.708-5.744-2.417l-1.292,3.421
			C158.138,159.818,159.985,160.598,161.847,161.451z"/>
		<path style="fill:#F2EFDC;" d="M195.58,186.471l-3.181,1.801c1.008,1.775,1.957,3.56,2.817,5.3l3.275-1.62
			C197.601,190.148,196.618,188.303,195.58,186.471z"/>
		<path style="fill:#F2EFDC;" d="M172.434,167.109l1.891-3.123c-1.792-1.087-3.603-2.121-5.385-3.077l-1.724,3.222
			C168.94,165.054,170.692,166.058,172.434,167.109z"/>
		<polygon style="fill:#F7C63B;" points="191.87,172.913 188.411,176.372 186.247,178.536 162.231,202.552 153.233,211.549 
			140.213,224.569 145.599,229.955 155.294,219.744 166.207,208.253 191.233,181.891 192.206,180.866 195.209,177.699 
			307.243,59.692 306.167,58.616 		"/>
		<path style="fill:#F7C63B;" d="M319.355,63.136c-0.848,0.848-0.852,2.232,0.001,3.084c0.854,0.854,2.236,0.849,3.084,0.001
			l5.675-5.675c0.427-0.427,0.643-0.986,0.639-1.542c0.005-0.557-0.212-1.116-0.638-1.542c-0.854-0.853-2.232-0.854-3.086,0
			l-1.589,1.59l-2.495,2.494L319.355,63.136z M321.519,65.126c-0.297,0.297-0.772,0.297-1.068,0c-0.298-0.297-0.297-0.771,0-1.068
			c0.297-0.297,0.771-0.298,1.068,0C321.815,64.354,321.815,64.829,321.519,65.126z M325.957,58.551
			c0.293-0.292,0.771-0.298,1.068,0c0.297,0.297,0.292,0.776-0.001,1.068c-0.297,0.297-0.775,0.302-1.072,0.004
			C325.655,59.327,325.66,58.848,325.957,58.551z"/>
		<path style="fill:#F7C63B;" d="M300.362,32.794c0.427-0.427,0.643-0.988,0.638-1.543c0.001-0.561-0.215-1.12-0.643-1.547
			c-0.853-0.853-2.231-0.854-3.085,0l-5.675,5.675c-0.848,0.848-0.853,2.232,0.001,3.084c0.854,0.854,2.241,0.853,3.089,0.005
			l1.591-1.591l2.494-2.494L300.362,32.794z M298.2,30.795c0.293-0.293,0.775-0.294,1.068-0.002c0.298,0.298,0.292,0.776,0,1.069
			c-0.297,0.297-0.775,0.302-1.073,0.004C297.902,31.574,297.903,31.092,298.2,30.795z M293.762,37.369
			c-0.297,0.297-0.771,0.298-1.069,0c-0.292-0.292-0.295-0.771,0.002-1.068c0.297-0.297,0.775-0.293,1.067-0.001
			C294.06,36.598,294.059,37.072,293.762,37.369z"/>
		<circle style="fill:#F2EFDC;" cx="320.984" cy="64.592" r="0.755"/>
		<path style="fill:#F2EFDC;" d="M292.694,36.301c-0.297,0.297-0.294,0.776-0.002,1.068c0.299,0.298,0.772,0.297,1.069,0
			c0.297-0.297,0.298-0.771,0-1.069C293.47,36.007,292.991,36.004,292.694,36.301z"/>
		
			<rect x="296.979" y="35.126" transform="matrix(0.7071 -0.7071 0.7071 0.7071 61.4405 222.0308)" style="fill:#F2EFDC;" width="3.527" height="3.443"/>
		
			<rect x="319.212" y="57.36" transform="matrix(-0.7072 0.707 -0.707 -0.7072 589.7496 -126.0581)" style="fill:#F2EFDC;" width="3.528" height="3.443"/>
		<path style="fill:#F2EFDC;" d="M327.024,59.619c0.293-0.292,0.298-0.771,0.001-1.068c-0.298-0.297-0.775-0.292-1.068,0
			c-0.297,0.297-0.302,0.775-0.005,1.072C326.249,59.921,326.728,59.916,327.024,59.619z"/>
		<path style="fill:#F2EFDC;" d="M299.269,31.863c0.292-0.293,0.298-0.771,0-1.069c-0.293-0.292-0.775-0.292-1.068,0.002
			c-0.297,0.297-0.298,0.779-0.005,1.072C298.493,32.165,298.972,32.16,299.269,31.863z"/>
		<path style="fill:#F7C63B;" d="M331.066,51.424c-0.853,0.854-0.853,2.232,0.001,3.084c0.853,0.854,2.23,0.854,3.084,0l5.675-5.675
			c0.427-0.427,0.638-0.981,0.638-1.542c0.004-0.556-0.211-1.116-0.638-1.542c-0.853-0.853-2.235-0.849-3.085,0l-1.59,1.59
			l-2.495,2.495L331.066,51.424z M333.226,53.419c-0.294,0.294-0.772,0.297-1.068,0c-0.297-0.297-0.293-0.774,0.001-1.068
			c0.297-0.297,0.774-0.302,1.071-0.004C333.526,52.643,333.523,53.122,333.226,53.419z M337.663,46.845
			c0.298-0.297,0.771-0.298,1.068,0c0.297,0.297,0.298,0.771,0,1.068c-0.297,0.297-0.771,0.297-1.068,0
			C337.365,47.616,337.366,47.142,337.663,46.845z"/>
		<path style="fill:#F7C63B;" d="M312.073,21.083c0.428-0.427,0.638-0.983,0.639-1.543c0-0.56-0.216-1.12-0.643-1.547
			c-0.853-0.853-2.235-0.849-3.085,0l-5.675,5.675c-0.853,0.854-0.853,2.232,0,3.084c0.854,0.854,2.236,0.859,3.09,0.005l1.59-1.59
			l2.495-2.495L312.073,21.083z M309.907,19.088c0.297-0.297,0.775-0.293,1.067-0.001c0.298,0.298,0.298,0.771,0,1.069
			c-0.297,0.297-0.771,0.298-1.068,0C309.613,19.863,309.61,19.385,309.907,19.088z M305.469,25.662
			c-0.294,0.294-0.771,0.298-1.068,0c-0.293-0.292-0.293-0.774,0.001-1.068c0.297-0.297,0.779-0.297,1.071-0.004
			C305.771,24.887,305.766,25.365,305.469,25.662z"/>
		<circle style="fill:#F2EFDC;" cx="332.692" cy="52.885" r="0.755"/>
		<path style="fill:#F2EFDC;" d="M304.401,24.594c-0.294,0.294-0.294,0.775-0.001,1.068c0.298,0.298,0.774,0.294,1.068,0
			c0.297-0.297,0.302-0.774,0.004-1.072C305.181,24.297,304.698,24.297,304.401,24.594z"/>
		
			<rect x="308.69" y="23.415" transform="matrix(0.7071 -0.7071 0.7071 0.7071 73.1596 226.8914)" style="fill:#F2EFDC;" width="3.529" height="3.443"/>
		
			<rect x="330.923" y="45.649" transform="matrix(-0.7072 0.707 -0.707 -0.7072 601.4479 -154.3533)" style="fill:#F2EFDC;" width="3.528" height="3.442"/>
		<path style="fill:#F2EFDC;" d="M338.732,47.913c0.298-0.297,0.297-0.771,0-1.068c-0.297-0.297-0.771-0.297-1.068,0
			c-0.297,0.297-0.298,0.771,0,1.068C337.96,48.21,338.435,48.21,338.732,47.913z"/>
		<path style="fill:#F2EFDC;" d="M310.975,20.156c0.298-0.297,0.298-0.771,0-1.069c-0.292-0.292-0.771-0.296-1.067,0.001
			c-0.297,0.297-0.294,0.775-0.001,1.068C310.204,20.454,310.678,20.453,310.975,20.156z"/>
		<path style="fill:#F7C63B;" d="M342.773,39.717c-0.853,0.854-0.853,2.233,0,3.085c0.854,0.853,2.232,0.853,3.085,0l5.675-5.675
			c0.426-0.426,0.639-0.982,0.637-1.542c0.005-0.557-0.21-1.117-0.637-1.543c-0.853-0.853-2.232-0.853-3.085,0l-1.591,1.591
			l-2.494,2.494L342.773,39.717z M344.936,41.708c-0.297,0.297-0.77,0.296-1.067-0.001c-0.297-0.297-0.297-0.77,0-1.067
			c0.297-0.297,0.77-0.298,1.068,0C345.233,40.937,345.232,41.411,344.936,41.708z M349.37,35.138
			c0.299-0.298,0.775-0.303,1.073-0.005c0.297,0.297,0.293,0.775-0.005,1.073c-0.293,0.293-0.772,0.297-1.069,0
			C349.072,35.909,349.077,35.431,349.37,35.138z"/>
		<path style="fill:#F7C63B;" d="M323.781,9.375c0.426-0.426,0.638-0.983,0.637-1.542c0.001-0.561-0.214-1.121-0.642-1.548
			c-0.853-0.852-2.232-0.852-3.085,0.001l-5.675,5.675c-0.853,0.854-0.853,2.232,0,3.085c0.854,0.854,2.236,0.858,3.09,0.004
			l1.59-1.59l2.494-2.494L323.781,9.375z M321.613,7.381c0.299-0.298,0.78-0.298,1.073-0.006c0.298,0.298,0.293,0.775-0.005,1.074
			c-0.293,0.293-0.771,0.298-1.069,0C321.32,8.157,321.32,7.674,321.613,7.381z M317.179,13.952
			c-0.297,0.297-0.77,0.296-1.067-0.001c-0.292-0.293-0.297-0.77,0-1.067c0.297-0.297,0.775-0.293,1.067-0.001
			C317.478,13.181,317.477,13.655,317.179,13.952z"/>
		<path style="fill:#F2EFDC;" d="M343.868,40.64c-0.297,0.297-0.297,0.77,0,1.067c0.298,0.297,0.77,0.298,1.067,0.001
			c0.297-0.297,0.298-0.771,0.001-1.068C344.639,40.342,344.165,40.343,343.868,40.64z"/>
		<path style="fill:#F2EFDC;" d="M316.111,12.884c-0.297,0.297-0.292,0.774,0,1.067c0.298,0.298,0.771,0.298,1.067,0.001
			c0.298-0.297,0.299-0.771,0-1.069C316.887,12.59,316.408,12.587,316.111,12.884z"/>
		
			<rect x="320.397" y="11.709" transform="matrix(0.7071 -0.7071 0.7071 0.7071 84.8619 231.7357)" style="fill:#F2EFDC;" width="3.527" height="3.443"/>
		
			<rect x="342.63" y="33.942" transform="matrix(-0.7071 0.7071 -0.7071 -0.7071 613.1345 -182.6418)" style="fill:#F2EFDC;" width="3.527" height="3.442"/>
		<path style="fill:#F2EFDC;" d="M350.439,36.206c0.298-0.298,0.302-0.776,0.005-1.073c-0.298-0.297-0.774-0.293-1.073,0.005
			c-0.293,0.293-0.298,0.771-0.001,1.068C349.666,36.504,350.146,36.499,350.439,36.206z"/>
		<path style="fill:#F2EFDC;" d="M322.682,8.449c0.298-0.298,0.303-0.776,0.005-1.074c-0.293-0.292-0.774-0.292-1.073,0.006
			c-0.293,0.293-0.293,0.775-0.001,1.068C321.91,8.747,322.389,8.742,322.682,8.449z"/>
		<g>
			<path style="fill:#663F30;" d="M315.173,62.451l3.339-3.34l2.494-2.494l9.217-9.216l2.495-2.495l9.212-9.211l2.494-2.495
				l12.328-12.328c1.425-1.426,1.425-3.745-0.001-5.171l-1.74-1.74L343.859,2.809l-1.736-1.736c-1.431-1.431-3.744-1.426-5.17,0
				l-12.328,12.328l-2.494,2.494l-9.212,9.212l-2.495,2.495l-9.216,9.217l-2.495,2.494l-3.339,3.339
				c-1.431,1.431-1.432,3.739,0,5.17l2.753,2.753l1.081,1.082l1.293,1.292l1.537,1.538l1.293,1.293l1.543,1.543l1.293,1.293
				l1.076,1.076l2.758,2.758C311.427,63.876,313.741,63.881,315.173,62.451z M301.436,46.111c-1.237-1.237-1.404-3.145-0.486-4.563
				c0.138-0.215,0.297-0.418,0.486-0.607l1.947-1.948l9.217-9.216l2.494-2.495l9.212-9.211l2.494-2.494l3.232-3.232
				c1.426-1.427,3.744-1.426,5.17,0l1.155,1.155c1.43,1.43,1.427,3.744,0,5.171l-3.231,3.231l-2.494,2.494l-9.212,9.212
				l-2.495,2.495l-9.216,9.216l-1.947,1.947c-0.189,0.189-0.393,0.348-0.608,0.486c-0.616,0.4-1.327,0.594-2.038,0.582
				c-0.689-0.009-1.374-0.21-1.974-0.612c-0.192-0.133-0.379-0.284-0.551-0.456L301.436,46.111z M310.553,55.229
				c-0.172-0.172-0.322-0.358-0.452-0.547c-0.4-0.599-0.607-1.279-0.611-1.974c-0.023-0.712,0.173-1.421,0.577-2.042
				c0.138-0.216,0.297-0.419,0.486-0.608l1.947-1.947l9.217-9.216l2.495-2.495l9.211-9.212l2.495-2.494l3.231-3.231
				c1.427-1.427,3.741-1.43,5.171,0l1.155,1.155c1.426,1.426,1.426,3.744,0,5.171l-3.232,3.232l-2.494,2.494l-9.211,9.212
				l-2.495,2.495l-9.217,9.217l-1.947,1.947c-0.189,0.189-0.393,0.348-0.608,0.485c-1.417,0.919-3.326,0.75-4.563-0.485
				L310.553,55.229z"/>
		</g>
		<path style="fill:#F7C63B;" d="M355.005,2.813c-3.075-3.075-8.069-3.08-11.146-0.004l11.151,11.151
			C358.087,10.884,358.087,5.895,355.005,2.813z"/>
	</g>
	<g>
		
			<rect x="336.272" y="25.121" transform="matrix(-0.7071 0.7071 -0.7071 -0.7071 596.8132 -188.009)" style="fill:#DAD8C6;" width="2.141" height="8.947"/>
		
			<rect x="327.155" y="16.003" transform="matrix(-0.7071 0.7071 -0.7071 -0.7071 574.795 -197.1351)" style="fill:#DAD8C6;" width="2.141" height="8.946"/>
		
			<rect x="315.507" y="27.85" transform="matrix(-0.7071 0.7071 -0.7071 -0.7071 562.9498 -168.5329)" style="fill:#DAD8C6;" width="1.744" height="8.946"/>
		
			<rect x="324.624" y="36.968" transform="matrix(-0.7071 0.7071 -0.7071 -0.7071 584.9605 -159.4171)" style="fill:#DAD8C6;" width="1.744" height="8.946"/>
		<path style="fill:#DAD8C6;" d="M316.879,56.384l1.218-1.218l-6.326-6.326l-1.218,1.218c-0.189,0.189-0.349,0.392-0.486,0.608
			l0.732,0.732l1.293,1.293l4.179,4.179C316.486,56.732,316.69,56.573,316.879,56.384z"/>
		<path style="fill:#DAD8C6;" d="M307.762,47.267l1.218-1.218l-6.326-6.326l-1.218,1.218c-0.19,0.189-0.349,0.392-0.486,0.607
			l4.184,4.184l1.293,1.292l0.728,0.729C307.369,47.615,307.572,47.456,307.762,47.267z"/>
		
			<rect x="71.52" y="240.715" transform="matrix(-0.7071 0.7071 -0.7071 -0.7071 329.1969 426.9187)" style="fill:#DFB335;" width="9.322" height="81.847"/>
		<path style="fill:#DAD8C6;" d="M34.589,327.116l2.538-2.633c-0.637-0.611-1.271-1.236-1.913-1.879
			c-1.439-1.44-2.833-2.895-4.149-4.338l-2.701,2.469c1.354,1.482,2.788,2.977,4.266,4.454
			C33.284,325.845,33.939,326.491,34.589,327.116z"/>
		<path style="fill:#DAD8C6;" d="M41.544,328.538l-2.4,2.754c1.586,1.387,3.188,2.715,4.767,3.945l2.254-2.883
			C44.637,331.167,43.086,329.882,41.544,328.538z"/>
		<path style="fill:#DAD8C6;" d="M23.47,309.015l-2.956,2.154c1.185,1.625,2.463,3.275,3.8,4.895l2.822-2.32
			C25.843,312.173,24.609,310.587,23.47,309.015z"/>
		<path style="fill:#DAD8C6;" d="M50.971,335.89l-2.059,3.014c1.74,1.199,3.502,2.314,5.243,3.332L56,339.081
			C54.337,338.107,52.648,337.03,50.971,335.89z"/>
		<path style="fill:#DAD8C6;" d="M17.14,298.946l-3.236,1.701c0.943,1.788,1.99,3.603,3.12,5.386l3.094-1.947
			C19.035,302.376,18.035,300.644,17.14,298.946z"/>
		<path style="fill:#DAD8C6;" d="M61.238,341.864l-1.576,3.301c1.904,0.913,3.848,1.736,5.757,2.44l1.267-3.43
			C64.876,343.511,63.044,342.73,61.238,341.864z"/>
		<path style="fill:#DAD8C6;" d="M12.602,288.04l-3.493,1.065c0.589,1.952,1.31,3.939,2.128,5.894l3.373-1.408
			C13.84,291.741,13.162,289.876,12.602,288.04z"/>
		<path style="fill:#DAD8C6;" d="M71.416,349.465c2.05,0.519,4.132,0.919,6.183,1.186l0.47-3.624
			c-1.903-0.25-3.843-0.619-5.761-1.107L71.416,349.465z"/>
		<path style="fill:#DAD8C6;" d="M10.482,276.519l-3.648,0.228c0.13,2.068,0.392,4.176,0.78,6.252l3.588-0.668
			C10.845,280.398,10.604,278.441,10.482,276.519z"/>
		<path style="fill:#C43D31;" d="M29.656,328.162c68.071,68.071,113.835,0.825,119.056-22.368c-2.296,0.847-4.515,1.864-6.603,2.883
			c-0.096,0.2-0.186,0.398-0.284,0.602l-0.471-0.232c-0.606,0.3-1.199,0.595-1.779,0.886
			c-21.213,11.314-43.841,26.869-65.761,10.606c-26.797-20.003-44.324-46.454-53.77-75.801c-0.864,1.239-1.693,2.495-2.443,3.757
			l-3.143-1.865c1.049-1.762,2.207-3.525,3.456-5.23l1.4,1.024c-1.094-3.577-2.067-7.194-2.927-10.847
			C-2.719,252.281-12.579,285.927,29.656,328.162z M135.71,312.901l3.146,1.861c-1.038,1.764-2.172,3.524-3.355,5.244l-3.003-2.082
			C133.634,316.28,134.71,314.591,135.71,312.901z M128.937,322.718l2.857,2.279c-1.301,1.628-2.664,3.223-4.046,4.725l-2.693-2.477
			C126.382,325.807,127.687,324.276,128.937,322.718z M11.534,252.192l3.325,1.525c-0.826,1.801-1.551,3.645-2.145,5.472
			l-3.477-1.134C9.875,256.091,10.65,254.118,11.534,252.192z M9.108,289.105l3.493-1.065c0.561,1.836,1.238,3.701,2.008,5.551
			l-3.373,1.408C10.418,293.044,9.697,291.058,9.108,289.105z M13.903,300.648l3.236-1.701c0.896,1.697,1.896,3.43,2.978,5.14
			l-3.094,1.947C15.894,304.251,14.847,302.436,13.903,300.648z M20.514,311.169l2.956-2.154c1.14,1.572,2.373,3.158,3.666,4.728
			l-2.822,2.32C22.977,314.444,21.698,312.794,20.514,311.169z M32.629,325.19c-1.477-1.478-2.912-2.973-4.266-4.454l2.701-2.469
			c1.316,1.443,2.711,2.898,4.149,4.338c0.643,0.642,1.276,1.267,1.913,1.879l-2.538,2.633
			C33.939,326.491,33.284,325.845,32.629,325.19z M39.144,331.292l2.4-2.754c1.542,1.344,3.093,2.629,4.62,3.816l-2.254,2.883
			C42.332,334.007,40.73,332.679,39.144,331.292z M48.912,338.903l2.059-3.014c1.678,1.141,3.366,2.217,5.029,3.191l-1.845,3.154
			C52.414,341.218,50.652,340.103,48.912,338.903z M59.662,345.165l1.576-3.301c1.806,0.866,3.638,1.646,5.447,2.311l-1.267,3.43
			C63.51,346.901,61.566,346.078,59.662,345.165z M77.599,350.65c-2.051-0.267-4.133-0.667-6.183-1.186l0.892-3.546
			c1.918,0.488,3.857,0.857,5.761,1.107L77.599,350.65z M90.197,350.719c-2.079,0.255-4.209,0.376-6.308,0.362l0.026-3.654
			c1.942,0.014,3.903-0.103,5.837-0.34L90.197,350.719z M116.364,335.359c1.517-1.206,3.033-2.508,4.498-3.878l2.496,2.667
			c-1.535,1.439-3.13,2.811-4.723,4.076L116.364,335.359z M106.462,341.804c1.711-0.883,3.427-1.893,5.094-2.98l2.003,3.063
			c-1.773,1.156-3.593,2.225-5.415,3.167L106.462,341.804z M95.507,346.014c1.868-0.474,3.747-1.076,5.593-1.783l1.313,3.408
			c-1.978,0.763-4.002,1.409-6.01,1.917L95.507,346.014z M7.651,264.166l3.585,0.698c-0.37,1.912-0.624,3.865-0.75,5.801
			l-3.644-0.233C6.975,268.341,7.247,266.234,7.651,264.166z M10.482,276.519c0.122,1.922,0.363,3.879,0.72,5.813l-3.588,0.668
			c-0.389-2.076-0.65-4.184-0.78-6.252L10.482,276.519z"/>
		<path style="fill:#DAD8C6;" d="M83.89,351.081c2.099,0.014,4.229-0.107,6.308-0.362l-0.444-3.632
			c-1.934,0.237-3.895,0.354-5.837,0.34L83.89,351.081z"/>
		<path style="fill:#DAD8C6;" d="M11.236,264.864l-3.585-0.698c-0.404,2.067-0.677,4.175-0.81,6.266l3.644,0.233
			C10.612,268.73,10.866,266.776,11.236,264.864z"/>
		<path style="fill:#DAD8C6;" d="M102.412,347.639l-1.313-3.408c-1.846,0.707-3.725,1.31-5.593,1.783l0.896,3.542
			C98.41,349.048,100.435,348.401,102.412,347.639z"/>
		<path style="fill:#DAD8C6;" d="M14.859,253.718l-3.325-1.525c-0.884,1.926-1.659,3.898-2.296,5.863l3.477,1.134
			C13.309,257.362,14.033,255.519,14.859,253.718z"/>
		<path style="fill:#DAD8C6;" d="M108.144,345.053c1.822-0.942,3.642-2.011,5.415-3.167l-2.003-3.063
			c-1.667,1.088-3.383,2.098-5.094,2.98L108.144,345.053z"/>
		<path style="fill:#DAD8C6;" d="M20.045,244.738c-0.248-0.771-0.492-1.541-0.729-2.314l-1.4-1.024
			c-1.249,1.705-2.407,3.469-3.456,5.23l3.143,1.865C18.352,247.234,19.181,245.978,20.045,244.738z"/>
		<path style="fill:#DAD8C6;" d="M118.636,338.224c1.593-1.266,3.188-2.637,4.723-4.076l-2.496-2.667
			c-1.465,1.37-2.981,2.672-4.498,3.878L118.636,338.224z"/>
		<path style="fill:#DAD8C6;" d="M125.055,327.245l2.693,2.477c1.382-1.502,2.745-3.097,4.046-4.725l-2.857-2.279
			C127.687,324.276,126.382,325.807,125.055,327.245z"/>
		<path style="fill:#DAD8C6;" d="M132.497,317.925l3.003,2.082c1.184-1.72,2.317-3.48,3.355-5.244l-3.146-1.861
			C134.71,314.591,133.634,316.28,132.497,317.925z"/>
		<path style="fill:#DAD8C6;" d="M142.109,308.677c-0.254,0.123-0.506,0.247-0.755,0.37l0.471,0.232
			C141.924,309.075,142.014,308.877,142.109,308.677z"/>
		<path style="fill:#4E3025;" d="M314.558,62.941l-19.675-19.675c-0.91,1.416-0.75,3.315,0.491,4.556l2.753,2.753l1.081,1.082
			l1.293,1.292l1.537,1.538l1.293,1.293l1.543,1.543l1.293,1.293l1.076,1.076l2.758,2.758
			C311.237,63.686,313.141,63.851,314.558,62.941z"/>
		<path style="fill:#DFB335;" d="M322.44,66.221l3.356-3.356l-3.085-3.085l-1.766,1.765l-1.591,1.591
			c-0.848,0.848-0.852,2.232,0.001,3.084C320.209,67.074,321.592,67.069,322.44,66.221z M320.45,64.058
			c0.297-0.297,0.771-0.298,1.068,0c0.297,0.297,0.297,0.771,0,1.068c-0.297,0.297-0.772,0.297-1.068,0
			C320.152,64.829,320.153,64.355,320.45,64.058z"/>
		<path style="fill:#DFB335;" d="M294.688,38.469l1.591-1.591l1.766-1.765l-3.09-3.09l-3.356,3.356
			c-0.848,0.848-0.853,2.232,0.001,3.084C292.452,39.317,293.84,39.317,294.688,38.469z M292.694,36.301
			c0.297-0.297,0.775-0.293,1.067-0.001c0.298,0.298,0.297,0.772,0,1.069c-0.297,0.297-0.771,0.298-1.069,0
			C292.4,37.077,292.398,36.598,292.694,36.301z"/>
		<circle style="fill:#DAD8C6;" cx="320.984" cy="64.592" r="0.755"/>
		<path style="fill:#DAD8C6;" d="M292.694,36.301c-0.297,0.297-0.294,0.776-0.002,1.068c0.299,0.298,0.772,0.297,1.069,0
			c0.297-0.297,0.298-0.771,0-1.069C293.47,36.007,292.991,36.004,292.694,36.301z"/>
		
			<rect x="297.13" y="35.491" transform="matrix(-0.7072 0.707 -0.707 -0.7072 535.6982 -147.4324)" style="fill:#DAD8C6;" width="2.497" height="3.443"/>
		
			<rect x="319.363" y="57.725" transform="matrix(-0.7072 0.707 -0.707 -0.7072 589.373 -125.196)" style="fill:#DAD8C6;" width="2.497" height="3.442"/>
		<path style="fill:#DFB335;" d="M334.151,54.509l2.823-2.824l-3.085-3.085l-1.233,1.233l-1.59,1.59
			c-0.853,0.854-0.853,2.232,0.001,3.084C331.921,55.362,333.298,55.363,334.151,54.509z M332.158,52.351
			c0.297-0.297,0.774-0.302,1.071-0.004c0.297,0.297,0.293,0.775-0.004,1.072c-0.294,0.294-0.772,0.297-1.068,0
			C331.86,53.122,331.864,52.645,332.158,52.351z"/>
		<path style="fill:#DFB335;" d="M306.399,26.757l1.59-1.59l1.233-1.233l-3.09-3.089l-2.823,2.823c-0.853,0.854-0.853,2.232,0,3.084
			C304.163,27.606,305.546,27.611,306.399,26.757z M304.401,24.594c0.297-0.297,0.779-0.297,1.071-0.004
			c0.298,0.298,0.293,0.775-0.004,1.072c-0.294,0.294-0.771,0.298-1.068,0C304.107,25.369,304.107,24.888,304.401,24.594z"/>
		<circle style="fill:#DAD8C6;" cx="332.692" cy="52.885" r="0.755"/>
		<path style="fill:#DAD8C6;" d="M304.401,24.594c-0.294,0.294-0.294,0.775-0.001,1.068c0.298,0.298,0.774,0.294,1.068,0
			c0.297-0.297,0.302-0.774,0.004-1.072C305.181,24.297,304.698,24.297,304.401,24.594z"/>
		
			<rect x="308.951" y="24.046" transform="matrix(-0.7071 0.7071 -0.7071 -0.7071 547.1231 -175.0886)" style="fill:#DAD8C6;" width="1.744" height="3.443"/>
		
			<rect x="331.184" y="46.28" transform="matrix(-0.7071 0.7071 -0.7071 -0.7071 600.7969 -152.8571)" style="fill:#DAD8C6;" width="1.744" height="3.442"/>
		<path style="fill:#DFB335;" d="M345.858,42.802l3.104-3.104l-3.085-3.085l-1.514,1.514l-1.59,1.59
			c-0.853,0.854-0.853,2.233,0,3.085C343.627,43.656,345.005,43.656,345.858,42.802z M343.868,40.64c0.297-0.297,0.77-0.298,1.068,0
			c0.297,0.297,0.296,0.771-0.001,1.068c-0.297,0.297-0.77,0.296-1.067-0.001C343.571,41.41,343.571,40.937,343.868,40.64z"/>
		<path style="fill:#DFB335;" d="M318.107,15.05l1.59-1.59l1.514-1.513l-3.09-3.09l-3.104,3.104c-0.853,0.854-0.853,2.232,0,3.085
			C315.87,15.899,317.253,15.903,318.107,15.05z M316.111,12.884c0.297-0.297,0.775-0.293,1.067-0.001
			c0.299,0.298,0.298,0.772,0,1.069c-0.297,0.297-0.77,0.296-1.067-0.001C315.819,13.658,315.815,13.181,316.111,12.884z"/>
		<path style="fill:#DAD8C6;" d="M343.868,40.64c-0.297,0.297-0.297,0.77,0,1.067c0.298,0.297,0.77,0.298,1.067,0.001
			c0.297-0.297,0.298-0.771,0.001-1.068C344.639,40.342,344.165,40.343,343.868,40.64z"/>
		<path style="fill:#DAD8C6;" d="M316.111,12.884c-0.297,0.297-0.292,0.774,0,1.067c0.298,0.298,0.771,0.298,1.067,0.001
			c0.298-0.297,0.299-0.771,0-1.069C316.887,12.59,316.408,12.587,316.111,12.884z"/>
		
			<rect x="320.6" y="12.199" transform="matrix(-0.7071 0.7071 -0.7071 -0.7071 558.9622 -203.6987)" style="fill:#DAD8C6;" width="2.141" height="3.443"/>
		
			<rect x="342.833" y="34.433" transform="matrix(-0.7071 0.7071 -0.7071 -0.7071 612.6444 -181.4579)" style="fill:#DAD8C6;" width="2.141" height="3.442"/>
	</g>
</g>
<g>
</g>
<g>
</g>
<g>
</g>
<g>
</g>
<g>
</g>
<g>
</g>
<g>
</g>
<g>
</g>
<g>
</g>
<g>
</g>
<g>
</g>
<g>
</g>
<g>
</g>
<g>
</g>
<g>
</g>
</svg>
